<?xml version="1.0" encoding="utf-8"?>
<!-- Generator: Adobe Illustrator 26.0.1, SVG Export Plug-In . SVG Version: 6.00 Build 0)  -->
<svg version="1.1" id="Ebene_1" xmlns="http://www.w3.org/2000/svg" xmlns:xlink="http://www.w3.org/1999/xlink" x="0px" y="0px"
	 viewBox="0 0 99.2 99.2" style="enable-background:new 0 0 99.2 99.2;" xml:space="preserve">
<style type="text/css">
	.st0{fill:#EB6619;}
	.st1{fill:#B0BDC7;}
</style>
<g id="Bildmarke">
	<path class="st0" d="M62.6,63.9H63V36H35.1v0.3C48.2,40.4,58.5,50.8,62.6,63.9z"/>
	<g>
		<g>
			<path class="st1" d="M20.2,49.7c0-16.2,13.2-29.4,29.4-29.4c6,0,11.6,1.8,16.3,4.9L75,16c-7.1-5.3-15.8-8.5-25.4-8.5
				C26.4,7.5,7.5,26.4,7.5,49.6c0,9.5,3.2,18.3,8.5,25.4l9-9C22,61.3,20.2,55.7,20.2,49.7z"/>
			<path class="st1" d="M83.2,24.2L74,33.4c3.1,4.7,4.9,10.2,4.9,16.3c0,16.2-13.2,29.4-29.4,29.4c-6,0-11.6-1.8-16.3-4.9l-9,9
				c7.1,5.3,15.8,8.5,25.4,8.5c23.2,0,42.1-18.8,42.1-42.1C91.7,40.1,88.5,31.3,83.2,24.2z"/>
		</g>
	</g>
</g>
</svg>
